<?xml version="1.0" encoding="UTF-8" standalone="no"?>
<!-- Generator: Adobe Illustrator 22.0.0, SVG Export Plug-In . SVG Version: 6.00 Build 0)  -->

<svg
   xmlns:dc="http://purl.org/dc/elements/1.1/"
   xmlns:cc="http://creativecommons.org/ns#"
   xmlns:rdf="http://www.w3.org/1999/02/22-rdf-syntax-ns#"
   xmlns:svg="http://www.w3.org/2000/svg"
   xmlns="http://www.w3.org/2000/svg"
   xmlns:xlink="http://www.w3.org/1999/xlink"
   xmlns:sodipodi="http://sodipodi.sourceforge.net/DTD/sodipodi-0.dtd"
   xmlns:inkscape="http://www.inkscape.org/namespaces/inkscape"
   style="enable-background:new 0 0 324.6 95.4;"
   inkscape:version="0.92.4 (5da689c313, 2019-01-14)"
   sodipodi:docname="meatball.svg"
   xml:space="preserve"
   viewBox="0 0 324.6 95.4"
   y="0px"
   x="0px"
   id="Layer_1"
   version="1.1"><metadata
   id="metadata33"><rdf:RDF><cc:Work
       rdf:about=""><dc:format>image/svg+xml</dc:format><dc:type
         rdf:resource="http://purl.org/dc/dcmitype/StillImage" /><dc:title /></cc:Work></rdf:RDF></metadata><defs
   id="defs31"><linearGradient
     inkscape:collect="always"
     id="linearGradient4559"><stop
       style="stop-color:#cccccc;stop-opacity:1"
       offset="0"
       id="stop4555" /><stop
       style="stop-color:#000000;stop-opacity:1"
       offset="1"
       id="stop4557" /></linearGradient><radialGradient
     inkscape:collect="always"
     xlink:href="#linearGradient4559"
     id="radialGradient4561"
     cx="170.41273"
     cy="16.204035"
     fx="170.41273"
     fy="16.204035"
     r="44.194176"
     gradientUnits="userSpaceOnUse"
     gradientTransform="matrix(0.74589812,1.4388613,-1.2214378,0.63318702,63.094416,-239.2564)" /><radialGradient
     inkscape:collect="always"
     xlink:href="#linearGradient4559"
     id="radialGradient4909"
     gradientUnits="userSpaceOnUse"
     gradientTransform="matrix(0.74589812,1.4388613,-1.2214378,0.63318702,-59.23506,-238.19574)"
     cx="170.41273"
     cy="16.204035"
     fx="170.41273"
     fy="16.204035"
     r="44.194176" /><radialGradient
     inkscape:collect="always"
     xlink:href="#linearGradient4559"
     id="radialGradient5044"
     gradientUnits="userSpaceOnUse"
     gradientTransform="matrix(0.55388866,0.88359731,-0.61295475,0.38423466,-197.96647,-171.27201)"
     cx="182.35303"
     cy="18.88834"
     fx="182.35303"
     fy="18.88834"
     r="44.194176" /><clipPath
     clipPathUnits="userSpaceOnUse"
     id="clipPath5046"><path
       style="fill:#ed1b2e"
       inkscape:connector-curvature="0"
       id="path5048"
       d="m -81.451862,-19.868744 c -4.4,-2.1 -8.40001,-3.100001 -13.60001,-3.200001 -18.699998,-0.3 -34.099998,13.8000006 -34.399998,31.6000006 -0.1,3.1000004 0.3,6.1000004 1.1,8.9000004 l 9.7,-13.5000004 6.5,10.2000004 c 0,0 2,2.2 0.5,4.5 -0.1,0.1 -8.9,12.3 -8.9,12.3 6.1,6.4 14.6,10.199997 24.299998,10.399997 9.40001,0.2 17.90001,-3.299997 24.10001,-9.099997 l -20.40001,-32.5000004 c 0,0 3.2,-4.5 5.80001,-8.1 2.8,-3.9999996 5.3,-1.2 6.1,0.1 6,9.4 17.3,27.4000004 17.3,27.4000004 v -0.1 c 1.2,-2.7 1.8,-3.5 1.9,-7.3 l -20,-31.6 v 0 m -4.9,38.8 c 0,0 -5.50001,8 -6.00001,8.7 -3.3,4.5 -5.8,-0.7 -5.8,-0.7 L -115.55187,-0.3687444 c 0,0 3.2,-4.5 5.8,-8.1 2.8,-3.9999996 5.3,-1.2 6.1,0.1 5.999998,9.4 17.300008,27.3000004 17.300008,27.3000004 z"
       class="st1" /></clipPath><clipPath
     id="clipPath"><path
       style="fill:#ffffff"
       inkscape:connector-curvature="0"
       id="path24"
       d="m 199.26953,11.243954 c -4.4,-2.1000001 -8.40001,-3.1000006 -13.60001,-3.2000006 -18.7,-0.3 -34.1,13.8000006 -34.4,31.6000006 -0.1,3.1 0.3,6.1 1.1,8.9 l 9.7,-13.5 6.5,10.2 c 0,0 2,2.2 0.5,4.5 -0.1,0.1 -8.9,12.3 -8.9,12.3 6.1,6.4 14.6,10.199997 24.3,10.399997 9.40001,0.2 17.90001,-3.299997 24.10001,-9.099997 l -20.40001,-32.5 c 0,0 3.2,-4.5 5.80001,-8.1 2.8,-4 5.3,-1.2 6.1,0.1 6,9.4 17.3,27.4 17.3,27.4 v -0.1 c 1.2,-2.7 1.8,-3.5 1.9,-7.3 l -20,-31.6 v 0 m -4.9,38.8 c 0,0 -5.50001,8 -6.00001,8.7 -3.3,4.5 -5.8,-0.7 -5.8,-0.7 l -17.4,-27.3 c 0,0 3.2,-4.5 5.8,-8.1 2.8,-4 5.3,-1.2 6.1,0.1 6,9.4 17.30001,27.3 17.30001,27.3 z"
       class="st1" /></clipPath><filter
     y="-0.5"
     x="-0.5"
     width="8.0"
     height="8.0"
     id="filter"><feGaussianBlur
       id="feGaussianBlur6805"
       stdDeviation="3.0" /></filter><radialGradient
     inkscape:collect="always"
     xlink:href="#linearGradient4559"
     id="radialGradient6868"
     gradientUnits="userSpaceOnUse"
     gradientTransform="matrix(0.74589812,1.4388613,-1.2214378,0.63318702,63.094416,-239.2564)"
     cx="170.41273"
     cy="16.204035"
     fx="170.41273"
     fy="16.204035"
     r="44.194176" /></defs><sodipodi:namedview
   pagecolor="#ffffff"
   bordercolor="#666666"
   borderopacity="1"
   objecttolerance="10"
   gridtolerance="10"
   guidetolerance="10"
   inkscape:pageopacity="0"
   inkscape:pageshadow="2"
   inkscape:window-width="1920"
   inkscape:window-height="1017"
   id="namedview29"
   showgrid="false"
   inkscape:zoom="2.8284271"
   inkscape:cx="72.447067"
   inkscape:cy="16.830933"
   inkscape:window-x="-8"
   inkscape:window-y="-8"
   inkscape:window-maximized="1"
   inkscape:current-layer="Layer_1"
   inkscape:showpageshadow="false"
   showborder="false" />
<style
   type="text/css"
   id="style2">
	.st0{fill:#FFFFFF;}
	.st1{fill:#ED1B2E;}
</style>












<circle
   style="fill:url(#radialGradient4909);fill-opacity:1;stroke:none"
   r="44.194176"
   cy="41.306332"
   cx="62.932503"
   id="circle4907" /><circle
   style="fill:url(#radialGradient5044);fill-opacity:1;stroke:none"
   r="44.194176"
   cy="9.1329718"
   cx="-95.459412"
   id="circle5040"
   clip-path="url(#clipPath5046)"
   transform="translate(158.39192,32.173359)" /><g
   id="g6848"><circle
     style="fill:url(#radialGradient4561);fill-opacity:1;stroke:none"
     r="44.194176"
     cy="40.24567"
     cx="185.26198"
     id="path3738" /><path
     class="st1"
     d="m 199.26953,11.243954 c -4.4,-2.1000001 -8.40001,-3.1000006 -13.60001,-3.2000006 -18.7,-0.3 -34.1,13.8000006 -34.4,31.6000006 -0.1,3.1 0.3,6.1 1.1,8.9 l 9.7,-13.5 6.5,10.2 c 0,0 2,2.2 0.5,4.5 -0.1,0.1 -8.9,12.3 -8.9,12.3 6.1,6.4 14.6,10.199997 24.3,10.399997 9.40001,0.2 17.90001,-3.299997 24.10001,-9.099997 l -20.40001,-32.5 c 0,0 3.2,-4.5 5.80001,-8.1 2.8,-4 5.3,-1.2 6.1,0.1 6,9.4 17.3,27.4 17.3,27.4 v -0.1 c 1.2,-2.7 1.8,-3.5 1.9,-7.3 l -20,-31.6 v 0 m -4.9,38.8 c 0,0 -5.50001,8 -6.00001,8.7 -3.3,4.5 -5.8,-0.7 -5.8,-0.7 l -17.4,-27.3 c 0,0 3.2,-4.5 5.8,-8.1 2.8,-4 5.3,-1.2 6.1,0.1 6,9.4 17.30001,27.3 17.30001,27.3 z"
     id="path6812"
     inkscape:connector-curvature="0"
     style="fill:#ffffff" /><g
     clip-path="url(#clipPath)"
     id="g6826"><g
       id="g6824"><path
         class="st1"
         d="m 152.36952,48.543954 9.7,-13.5 m 22.4,37.399997 c 9.40001,0.2 17.90001,-3.299997 24.10001,-9.099997 m -20.40001,-32.5 c 0,0 3.2,-4.5 5.80001,-8.1 m 23.4,27.4 c 1.2,-2.7 1.8,-3.5 1.9,-7.3 m -54.10001,-12.1 c 0,0 3.2,-4.5 5.8,-8.1"
         id="path6816"
         inkscape:connector-curvature="0"
         style="fill:none;stroke:#ffffff;stroke-width:10;stroke-opacity:1;filter:url(#filter)" /><path
         class="st1"
         d="m 160.16952,62.043954 c 6.1,6.4 14.6,10.199997 24.3,10.399997 m 24.10001,-9.099997 -20.40001,-32.5 m 5.80001,-8.1 c 2.8,-4 5.3,-1.2 6.1,0.1 m 17.3,27.4 v -0.1 m 1.9,-7.3 -20,-31.6 m -16.70001,46.8 -17.4,-27.3 m 5.8,-8.1 c 2.8,-4 5.3,-1.2 6.1,0.1"
         id="path6818"
         inkscape:connector-curvature="0"
         style="fill:none;stroke:#aaaaaa;stroke-width:10;stroke-opacity:1;filter:url(#filter)" /><path
         class="st1"
         d="m 199.26953,11.243954 c -4.4,-2.1000001 -8.40001,-3.1000006 -13.60001,-3.2000006 m -34.4,31.6000006 c -0.1,3.1 0.3,6.1 1.1,8.9 m 9.7,-13.5 6.5,10.2 m 0,0 c 0,0 2,2.2 0.5,4.5 m 31.00001,-26.9 c 6,9.4 17.3,27.4 17.3,27.4 m -18.1,-39 v 0 m -10.90001,47.5 c -3.3,4.5 -5.8,-0.7 -5.8,-0.7 m -5.5,-35.3 c 6,9.4 17.30001,27.3 17.30001,27.3"
         id="path6820"
         inkscape:connector-curvature="0"
         style="fill:none;stroke:#555555;stroke-width:10;stroke-opacity:1;filter:url(#filter)" /><path
         class="st1"
         d="m 185.66952,8.0439534 c -18.7,-0.3 -34.1,13.8000006 -34.4,31.6000006 m 17.8,10.1 c -0.1,0.1 -8.9,12.3 -8.9,12.3 m 39.10001,-50.8 m -4.9,38.8 m 0,0 c 0,0 -5.50001,8 -6.00001,8.7"
         id="path6822"
         inkscape:connector-curvature="0"
         style="fill:none;stroke:#000000;stroke-width:10;stroke-opacity:1;filter:url(#filter)" /></g></g></g><g
   id="g6866"
   transform="matrix(0.14400004,0,0,0.14400004,-128.85466,-0.55149338)"
   inkscape:export-xdpi="482.71799"
   inkscape:export-ydpi="482.71799"><circle
     id="circle6850"
     cx="185.26198"
     cy="40.24567"
     r="44.194176"
     style="fill:url(#radialGradient6868);fill-opacity:1;stroke:none" /><path
     style="fill:#ffffff"
     inkscape:connector-curvature="0"
     id="path6852"
     d="m 199.26953,11.243954 c -4.4,-2.1000001 -8.40001,-3.1000006 -13.60001,-3.2000006 -18.7,-0.3 -34.1,13.8000006 -34.4,31.6000006 -0.1,3.1 0.3,6.1 1.1,8.9 l 9.7,-13.5 6.5,10.2 c 0,0 2,2.2 0.5,4.5 -0.1,0.1 -8.9,12.3 -8.9,12.3 6.1,6.4 14.6,10.199997 24.3,10.399997 9.40001,0.2 17.90001,-3.299997 24.10001,-9.099997 l -20.40001,-32.5 c 0,0 3.2,-4.5 5.80001,-8.1 2.8,-4 5.3,-1.2 6.1,0.1 6,9.4 17.3,27.4 17.3,27.4 v -0.1 c 1.2,-2.7 1.8,-3.5 1.9,-7.3 l -20,-31.6 v 0 m -4.9,38.8 c 0,0 -5.50001,8 -6.00001,8.7 -3.3,4.5 -5.8,-0.7 -5.8,-0.7 l -17.4,-27.3 c 0,0 3.2,-4.5 5.8,-8.1 2.8,-4 5.3,-1.2 6.1,0.1 6,9.4 17.30001,27.3 17.30001,27.3 z"
     class="st1" /><g
     id="g6864"
     clip-path="url(#clipPath)"><g
       id="g6862"><path
         style="fill:none;stroke:#ffffff;stroke-width:10;stroke-opacity:1;filter:url(#filter)"
         inkscape:connector-curvature="0"
         id="path6854"
         d="m 152.36952,48.543954 9.7,-13.5 m 22.4,37.399997 c 9.40001,0.2 17.90001,-3.299997 24.10001,-9.099997 m -20.40001,-32.5 c 0,0 3.2,-4.5 5.80001,-8.1 m 23.4,27.4 c 1.2,-2.7 1.8,-3.5 1.9,-7.3 m -54.10001,-12.1 c 0,0 3.2,-4.5 5.8,-8.1"
         class="st1" /><path
         style="fill:none;stroke:#aaaaaa;stroke-width:10;stroke-opacity:1;filter:url(#filter)"
         inkscape:connector-curvature="0"
         id="path6856"
         d="m 160.16952,62.043954 c 6.1,6.4 14.6,10.199997 24.3,10.399997 m 24.10001,-9.099997 -20.40001,-32.5 m 5.80001,-8.1 c 2.8,-4 5.3,-1.2 6.1,0.1 m 17.3,27.4 v -0.1 m 1.9,-7.3 -20,-31.6 m -16.70001,46.8 -17.4,-27.3 m 5.8,-8.1 c 2.8,-4 5.3,-1.2 6.1,0.1"
         class="st1" /><path
         style="fill:none;stroke:#555555;stroke-width:10;stroke-opacity:1;filter:url(#filter)"
         inkscape:connector-curvature="0"
         id="path6858"
         d="m 199.26953,11.243954 c -4.4,-2.1000001 -8.40001,-3.1000006 -13.60001,-3.2000006 m -34.4,31.6000006 c -0.1,3.1 0.3,6.1 1.1,8.9 m 9.7,-13.5 6.5,10.2 m 0,0 c 0,0 2,2.2 0.5,4.5 m 31.00001,-26.9 c 6,9.4 17.3,27.4 17.3,27.4 m -18.1,-39 v 0 m -10.90001,47.5 c -3.3,4.5 -5.8,-0.7 -5.8,-0.7 m -5.5,-35.3 c 6,9.4 17.30001,27.3 17.30001,27.3"
         class="st1" /><path
         style="fill:none;stroke:#000000;stroke-width:10;stroke-opacity:1;filter:url(#filter)"
         inkscape:connector-curvature="0"
         id="path6860"
         d="m 185.66952,8.0439534 c -18.7,-0.3 -34.1,13.8000006 -34.4,31.6000006 m 17.8,10.1 c -0.1,0.1 -8.9,12.3 -8.9,12.3 m 39.10001,-50.8 m -4.9,38.8 m 0,0 c 0,0 -5.50001,8 -6.00001,8.7"
         class="st1" /></g></g></g></svg>